<?xml version="1.0" encoding="UTF-8" standalone="no"?>
<!-- Created with Inkscape (http://www.inkscape.org/) -->
<svg
   xmlns:dc="http://purl.org/dc/elements/1.1/"
   xmlns:cc="http://creativecommons.org/ns#"
   xmlns:rdf="http://www.w3.org/1999/02/22-rdf-syntax-ns#"
   xmlns:svg="http://www.w3.org/2000/svg"
   xmlns="http://www.w3.org/2000/svg"
   xmlns:xlink="http://www.w3.org/1999/xlink"
   xmlns:sodipodi="http://sodipodi.sourceforge.net/DTD/sodipodi-0.dtd"
   xmlns:inkscape="http://www.inkscape.org/namespaces/inkscape"
   width="48px"
   height="48px"
   id="svg3406"
   sodipodi:version="0.32"
   inkscape:version="0.46"
   sodipodi:docname="input-keyboard.svg"
   inkscape:output_extension="org.inkscape.output.svg.inkscape">
  <defs
     id="defs3408">
    <linearGradient
       id="linearGradient3593">
      <stop
         style="stop-color:#3ab1d5;stop-opacity:1;"
         offset="0"
         id="stop3595" />
      <stop
         style="stop-color:#287a93;stop-opacity:1"
         offset="1"
         id="stop3597" />
    </linearGradient>
    <linearGradient
       inkscape:collect="always"
       xlink:href="#linearGradient3593"
       id="linearGradient2540"
       gradientUnits="userSpaceOnUse"
       x1="-10.470651"
       y1="446.16394"
       x2="-10.374956"
       y2="461.2359" />
    <linearGradient
       inkscape:collect="always"
       id="linearGradient3967">
      <stop
         style="stop-color:#ffffff;stop-opacity:1;"
         offset="0"
         id="stop3969" />
      <stop
         style="stop-color:#ffffff;stop-opacity:0;"
         offset="1"
         id="stop3971" />
    </linearGradient>
    <linearGradient
       inkscape:collect="always"
       xlink:href="#linearGradient3967"
       id="linearGradient3973"
       x1="36.639923"
       y1="10.711333"
       x2="35.581474"
       y2="16.066296"
       gradientUnits="userSpaceOnUse" />
    <linearGradient
       id="linearGradient3167">
      <stop
         style="stop-color:#035b95;stop-opacity:1"
         offset="0"
         id="stop3169" />
      <stop
         style="stop-color:#62b1d7;stop-opacity:1;"
         offset="1"
         id="stop3171" />
    </linearGradient>
    <linearGradient
       inkscape:collect="always"
       xlink:href="#linearGradient3167"
       id="linearGradient3189"
       gradientUnits="userSpaceOnUse"
       x1="-10.292396"
       y1="461.78082"
       x2="-10.757737"
       y2="446.14532" />
    <linearGradient
       inkscape:collect="always"
       id="linearGradient3177">
      <stop
         style="stop-color:#00405b;stop-opacity:1"
         offset="0"
         id="stop3179" />
      <stop
         style="stop-color:#019bdb;stop-opacity:1"
         offset="1"
         id="stop3181" />
    </linearGradient>
    <linearGradient
       inkscape:collect="always"
       xlink:href="#linearGradient3177"
       id="linearGradient3187"
       gradientUnits="userSpaceOnUse"
       x1="-13.084444"
       y1="461.78082"
       x2="-13.084444"
       y2="455.85181" />
    <inkscape:perspective
       sodipodi:type="inkscape:persp3d"
       inkscape:vp_x="0 : 24 : 1"
       inkscape:vp_y="0 : 1000 : 0"
       inkscape:vp_z="48 : 24 : 1"
       inkscape:persp3d-origin="24 : 16 : 1"
       id="perspective3414" />
    <linearGradient
       inkscape:collect="always"
       xlink:href="#linearGradient3593"
       id="linearGradient3995"
       x1="22.640003"
       y1="15.537802"
       x2="22.722427"
       y2="33.011692"
       gradientUnits="userSpaceOnUse"
       gradientTransform="matrix(1.3242148,0,0,1.3242148,-7.7811556,-7.781155)" />
  </defs>
  <sodipodi:namedview
     id="base"
     pagecolor="#ffffff"
     bordercolor="#666666"
     borderopacity="1.0"
     inkscape:pageopacity="0.0"
     inkscape:pageshadow="2"
     inkscape:zoom="7"
     inkscape:cx="-19.778916"
     inkscape:cy="35.428571"
     inkscape:current-layer="layer1"
     showgrid="true"
     inkscape:grid-bbox="true"
     inkscape:document-units="px"
     inkscape:window-width="1280"
     inkscape:window-height="749"
     inkscape:window-x="0"
     inkscape:window-y="26" />
  <metadata
     id="metadata3411">
    <rdf:RDF>
      <cc:Work
         rdf:about="">
        <dc:format>image/svg+xml</dc:format>
        <dc:type
           rdf:resource="http://purl.org/dc/dcmitype/StillImage" />
      </cc:Work>
    </rdf:RDF>
  </metadata>
  <g
     id="layer1"
     inkscape:label="Layer 1"
     inkscape:groupmode="layer">
    <path
       style="fill:url(#linearGradient3995);fill-opacity:1;stroke:none;stroke-width:2;stroke-linecap:round;stroke-linejoin:miter;stroke-miterlimit:4;stroke-dasharray:none;stroke-opacity:1"
       d="M 0.66071367,11.171669 L 0.66071367,36.82833 L 47.339286,36.82833 L 47.339286,11.171669 L 0.66071367,11.171669 z M 4.4678312,14.813259 L 7.4059327,14.813259 C 7.8158408,14.813259 8.1508036,15.148222 8.1508036,15.55813 L 8.1508036,18.496232 C 8.1508036,18.90614 7.8158408,19.241103 7.4059327,19.241103 L 4.4678312,19.241103 C 4.0579229,19.241103 3.7229604,18.90614 3.7229604,18.496232 L 3.7229604,15.55813 C 3.7229604,15.148224 4.0579232,14.813259 4.4678312,14.813259 z M 10.633707,14.813259 L 13.571809,14.813259 C 13.981717,14.813259 14.316679,15.148222 14.316679,15.55813 L 14.316679,18.496232 C 14.316678,18.90614 13.981717,19.241103 13.571809,19.241103 L 10.633707,19.241103 C 10.223799,19.241103 9.8888365,18.90614 9.8888365,18.496232 L 9.8888365,15.55813 C 9.8888365,15.148224 10.223799,14.813259 10.633707,14.813259 z M 16.799582,14.813259 L 19.737684,14.813259 C 20.147593,14.813259 20.482554,15.148222 20.482554,15.55813 L 20.482554,18.496232 C 20.482554,18.90614 20.147593,19.241103 19.737684,19.241103 L 16.799582,19.241103 C 16.389676,19.241103 16.054711,18.90614 16.054711,18.496232 L 16.054711,15.55813 C 16.054711,15.148224 16.389674,14.813259 16.799582,14.813259 z M 22.965458,14.813259 L 25.903559,14.813259 C 26.313467,14.813259 26.64843,15.148222 26.64843,15.55813 L 26.64843,18.496232 C 26.64843,18.90614 26.313467,19.241103 25.903559,19.241103 L 22.965458,19.241103 C 22.555551,19.241103 22.220586,18.90614 22.220586,18.496232 L 22.220586,15.55813 C 22.220586,15.148224 22.555549,14.813259 22.965458,14.813259 z M 29.131333,14.813259 L 32.069434,14.813259 C 32.479342,14.813259 32.814305,15.148222 32.814305,15.55813 L 32.814305,18.496232 C 32.814305,18.90614 32.479342,19.241103 32.069434,19.241103 L 29.131333,19.241103 C 28.721426,19.241103 28.386462,18.90614 28.386462,18.496232 L 28.386462,15.55813 C 28.386462,15.148224 28.721425,14.813259 29.131333,14.813259 z M 35.297208,14.813259 L 38.235309,14.813259 C 38.645218,14.813259 38.98018,15.148222 38.98018,15.55813 L 38.98018,18.496232 C 38.980178,18.90614 38.645217,19.241103 38.235309,19.241103 L 35.297208,19.241103 C 34.887299,19.241103 34.552337,18.90614 34.552337,18.496232 L 34.552337,15.55813 C 34.552337,15.148224 34.8873,14.813259 35.297208,14.813259 z M 41.463083,14.813259 L 44.401184,14.813259 C 44.811092,14.813259 45.146055,15.148222 45.146055,15.55813 L 45.146055,18.496232 C 45.146055,18.90614 44.811092,19.241103 44.401184,19.241103 L 41.463083,19.241103 C 41.053176,19.241103 40.718212,18.90614 40.718212,18.496232 L 40.718212,15.55813 C 40.718212,15.148224 41.053175,14.813259 41.463083,14.813259 z M 6.9093522,21.930914 L 9.8888365,21.930914 C 10.298744,21.930914 10.633707,22.265877 10.633707,22.675786 L 10.633707,25.655268 C 10.633707,26.065176 10.298744,26.40014 9.8888365,26.40014 L 6.9093522,26.40014 C 6.4994442,26.40014 6.1644814,26.065176 6.1644814,25.655268 L 6.1644814,22.675786 C 6.1644814,22.265878 6.4994442,21.930914 6.9093522,21.930914 z M 13.075228,21.930914 L 16.054711,21.930914 C 16.464619,21.930914 16.799582,22.265877 16.799582,22.675786 L 16.799582,25.655268 C 16.799582,26.065176 16.464619,26.40014 16.054711,26.40014 L 13.075228,26.40014 C 12.66532,26.40014 12.330357,26.065176 12.330357,25.655268 L 12.330357,22.675786 C 12.330357,22.265878 12.66532,21.930914 13.075228,21.930914 z M 19.241103,21.930914 L 22.220586,21.930914 C 22.630495,21.930914 22.965458,22.265877 22.965458,22.675786 L 22.965458,25.655268 C 22.965458,26.065176 22.630495,26.40014 22.220586,26.40014 L 19.241103,26.40014 C 18.831197,26.40014 18.496232,26.065176 18.496232,25.655268 L 18.496232,22.675786 C 18.496232,22.265878 18.831195,21.930914 19.241103,21.930914 z M 25.406979,21.930914 L 28.386462,21.930914 C 28.79637,21.930914 29.131333,22.265877 29.131333,22.675786 L 29.131333,25.655268 C 29.131333,26.065176 28.79637,26.40014 28.386462,26.40014 L 25.406979,26.40014 C 24.997072,26.40014 24.662108,26.065176 24.662108,25.655268 L 24.662108,22.675786 C 24.662108,22.265878 24.997071,21.930914 25.406979,21.930914 z M 31.572854,21.930914 L 34.552337,21.930914 C 34.962245,21.930914 35.297208,22.265877 35.297208,22.675786 L 35.297208,25.655268 C 35.297205,26.065176 34.962245,26.40014 34.552337,26.40014 L 31.572854,26.40014 C 31.162947,26.40014 30.827983,26.065176 30.827983,25.655268 L 30.827983,22.675786 C 30.827983,22.265878 31.162946,21.930914 31.572854,21.930914 z M 37.738729,21.930914 L 43.863223,21.930914 C 44.273131,21.930914 44.608093,22.265877 44.608093,22.675786 L 44.608093,25.655268 C 44.608094,26.065176 44.273131,26.40014 43.863223,26.40014 L 37.738729,26.40014 C 37.328822,26.40014 36.993858,26.065176 36.993858,25.655268 L 36.993858,22.675786 C 36.993858,22.265878 37.328821,21.930914 37.738729,21.930914 z M 4.2609226,29.007186 L 8.2749487,29.007186 C 8.6848568,29.007186 9.0198195,29.342149 9.0198195,29.752057 L 9.0198195,32.690159 C 9.0198195,33.100067 8.6848568,33.43503 8.2749487,33.43503 L 4.2609226,33.43503 C 3.8510143,33.43503 3.5160518,33.100067 3.5160518,32.690159 L 3.5160518,29.752057 C 3.5160518,29.342151 3.8510146,29.007186 4.2609226,29.007186 z M 40.056105,29.007186 L 44.028749,29.007186 C 44.438658,29.007186 44.77362,29.342149 44.77362,29.752057 L 44.77362,32.690159 C 44.773617,33.100067 44.438657,33.43503 44.028749,33.43503 L 40.056105,33.43503 C 39.646198,33.43503 39.311234,33.100067 39.311234,32.690159 L 39.311234,29.752057 C 39.311234,29.342151 39.646197,29.007186 40.056105,29.007186 z M 11.585486,29.172714 L 36.786949,29.172714 C 37.196858,29.172714 37.53182,29.507677 37.53182,29.917585 L 37.53182,32.855686 C 37.531817,33.265594 37.196857,33.600557 36.786949,33.600557 L 11.585486,33.600557 C 11.175578,33.600557 10.840616,33.265594 10.840616,32.855686 L 10.840616,29.917585 C 10.840616,29.507678 11.175578,29.172714 11.585486,29.172714 z"
       id="rect2401" />
  </g>
</svg>
