<?xml version="1.0" encoding="UTF-8" standalone="no"?>
<!-- Created with Inkscape (http://www.inkscape.org/) -->
<svg
   xmlns:dc="http://purl.org/dc/elements/1.1/"
   xmlns:cc="http://creativecommons.org/ns#"
   xmlns:rdf="http://www.w3.org/1999/02/22-rdf-syntax-ns#"
   xmlns:svg="http://www.w3.org/2000/svg"
   xmlns="http://www.w3.org/2000/svg"
   xmlns:xlink="http://www.w3.org/1999/xlink"
   xmlns:sodipodi="http://sodipodi.sourceforge.net/DTD/sodipodi-0.dtd"
   xmlns:inkscape="http://www.inkscape.org/namespaces/inkscape"
   width="48px"
   height="48px"
   id="svg3406"
   sodipodi:version="0.32"
   inkscape:version="0.46"
   sodipodi:docname="camera-web.svg"
   inkscape:output_extension="org.inkscape.output.svg.inkscape">
  <defs
     id="defs3408">
    <linearGradient
       id="linearGradient3593">
      <stop
         style="stop-color:#3ab1d5;stop-opacity:1;"
         offset="0"
         id="stop3595" />
      <stop
         style="stop-color:#287a93;stop-opacity:1"
         offset="1"
         id="stop3597" />
    </linearGradient>
    <linearGradient
       inkscape:collect="always"
       xlink:href="#linearGradient3593"
       id="linearGradient2540"
       gradientUnits="userSpaceOnUse"
       x1="-10.470651"
       y1="446.16394"
       x2="-10.374956"
       y2="461.2359" />
    <linearGradient
       inkscape:collect="always"
       id="linearGradient3967">
      <stop
         style="stop-color:#ffffff;stop-opacity:1;"
         offset="0"
         id="stop3969" />
      <stop
         style="stop-color:#ffffff;stop-opacity:0;"
         offset="1"
         id="stop3971" />
    </linearGradient>
    <linearGradient
       inkscape:collect="always"
       xlink:href="#linearGradient3967"
       id="linearGradient3973"
       x1="36.639923"
       y1="10.711333"
       x2="35.581474"
       y2="16.066296"
       gradientUnits="userSpaceOnUse" />
    <linearGradient
       id="linearGradient3167">
      <stop
         style="stop-color:#035b95;stop-opacity:1"
         offset="0"
         id="stop3169" />
      <stop
         style="stop-color:#62b1d7;stop-opacity:1;"
         offset="1"
         id="stop3171" />
    </linearGradient>
    <linearGradient
       inkscape:collect="always"
       xlink:href="#linearGradient3167"
       id="linearGradient3189"
       gradientUnits="userSpaceOnUse"
       x1="-10.292396"
       y1="461.78082"
       x2="-10.757737"
       y2="446.14532" />
    <linearGradient
       inkscape:collect="always"
       id="linearGradient3177">
      <stop
         style="stop-color:#00405b;stop-opacity:1"
         offset="0"
         id="stop3179" />
      <stop
         style="stop-color:#019bdb;stop-opacity:1"
         offset="1"
         id="stop3181" />
    </linearGradient>
    <linearGradient
       inkscape:collect="always"
       xlink:href="#linearGradient3177"
       id="linearGradient3187"
       gradientUnits="userSpaceOnUse"
       x1="-13.084444"
       y1="461.78082"
       x2="-13.084444"
       y2="455.85181" />
    <inkscape:perspective
       sodipodi:type="inkscape:persp3d"
       inkscape:vp_x="0 : 24 : 1"
       inkscape:vp_y="0 : 1000 : 0"
       inkscape:vp_z="48 : 24 : 1"
       inkscape:persp3d-origin="24 : 16 : 1"
       id="perspective3414" />
    <linearGradient
       inkscape:collect="always"
       xlink:href="#linearGradient3593"
       id="linearGradient3991"
       x1="20.580357"
       y1="11.640625"
       x2="20.580357"
       y2="37.205708"
       gradientUnits="userSpaceOnUse"
       gradientTransform="matrix(1.1697221,0,0,1.1697221,-3.1594856,-6.1621285)" />
  </defs>
  <sodipodi:namedview
     id="base"
     pagecolor="#ffffff"
     bordercolor="#666666"
     borderopacity="1.0"
     inkscape:pageopacity="0.0"
     inkscape:pageshadow="2"
     inkscape:zoom="7"
     inkscape:cx="28.390629"
     inkscape:cy="27.383191"
     inkscape:current-layer="layer1"
     showgrid="true"
     inkscape:grid-bbox="true"
     inkscape:document-units="px"
     inkscape:window-width="1280"
     inkscape:window-height="749"
     inkscape:window-x="0"
     inkscape:window-y="26" />
  <metadata
     id="metadata3411">
    <rdf:RDF>
      <cc:Work
         rdf:about="">
        <dc:format>image/svg+xml</dc:format>
        <dc:type
           rdf:resource="http://purl.org/dc/dcmitype/StillImage" />
      </cc:Work>
    </rdf:RDF>
  </metadata>
  <g
     id="layer1"
     inkscape:label="Layer 1"
     inkscape:groupmode="layer">
    <path
       style="opacity:1;fill:url(#linearGradient3991);fill-opacity:1;stroke:none;stroke-width:1;stroke-linecap:round;stroke-linejoin:miter;stroke-miterlimit:4;stroke-dasharray:none;stroke-opacity:1"
       d="M 22.5625 1 C 22.2855 1 22.0625 1.223 22.0625 1.5 L 22.0625 2.4375 C 12.785364 3.411446 5.53125 11.278018 5.53125 20.8125 C 5.5312499 31.005123 13.807376 39.281249 24 39.28125 C 34.192624 39.28125 42.468749 31.005124 42.46875 20.8125 C 42.468747 11.278018 35.214635 3.4114459 25.9375 2.4375 L 25.9375 1.5 C 25.9375 1.223 25.7145 1 25.4375 1 L 22.5625 1 z M 24 11.5625 C 29.119372 11.5625 33.28125 15.693128 33.28125 20.8125 C 33.281251 25.931871 29.119372 30.09375 24 30.09375 C 18.880628 30.09375 14.71875 25.931872 14.71875 20.8125 C 14.71875 15.693127 18.880628 11.5625 24 11.5625 z M 24 13.21875 C 19.803037 13.21875 16.40625 16.615537 16.40625 20.8125 C 16.406249 25.009462 19.803037 28.406249 24 28.40625 C 28.196963 28.40625 31.593749 25.009462 31.59375 20.8125 C 31.593751 16.615536 28.196963 13.21875 24 13.21875 z M 24 15.21875 C 27.090071 15.218749 29.59375 17.722429 29.59375 20.8125 C 29.59375 23.90257 27.090071 26.40625 24 26.40625 C 20.909929 26.406249 18.40625 23.902571 18.40625 20.8125 C 18.406248 17.722428 20.909929 15.21875 24 15.21875 z M 16 38.59375 L 12.875 42.3125 C 12.875 45.264212 17.865977 47.656249 24 47.65625 C 30.134023 47.656251 35.124998 45.264211 35.125 42.3125 L 32 38.59375 C 29.573588 39.767071 26.8752 40.4375 24 40.4375 C 21.13051 40.437498 18.422764 39.762695 16 38.59375 z "
       id="path3947" />
  </g>
</svg>
