<?xml version="1.0" encoding="UTF-8" standalone="no"?>
<svg
   xmlns:dc="http://purl.org/dc/elements/1.1/"
   xmlns:cc="http://creativecommons.org/ns#"
   xmlns:rdf="http://www.w3.org/1999/02/22-rdf-syntax-ns#"
   xmlns:svg="http://www.w3.org/2000/svg"
   xmlns="http://www.w3.org/2000/svg"
   xmlns:xlink="http://www.w3.org/1999/xlink"
   xmlns:sodipodi="http://sodipodi.sourceforge.net/DTD/sodipodi-0.dtd"
   xmlns:inkscape="http://www.inkscape.org/namespaces/inkscape"
   version="1.1"
   width="128"
   height="128"
   viewBox="0 0 128 128"
   style="overflow:visible;enable-background:new 0 0 128 128;"
   xml:space="preserve"
   id="svg2"
   sodipodi:version="0.32"
   inkscape:version="0.46"
   sodipodi:docname="start-here.svg"
   sodipodi:docbase="/home/daz/Documents/icons/dazzlicons/dazzl/scalable/places"
   inkscape:output_extension="org.inkscape.output.svg.inkscape"
   inkscape:export-filename="/home/daz/Documents/icons/dazzlicons/dazzl/scalable/places/start-here.png"
   inkscape:export-xdpi="90"
   inkscape:export-ydpi="90"><metadata
   id="metadata51"><rdf:RDF><cc:Work
       rdf:about=""><dc:format>image/svg+xml</dc:format><dc:type
         rdf:resource="http://purl.org/dc/dcmitype/StillImage" /></cc:Work></rdf:RDF></metadata><defs
   id="defs49"><linearGradient
     id="linearGradient3333"
     inkscape:collect="always"><stop
       id="stop3335"
       offset="0"
       style="stop-color:#00618a;stop-opacity:1" /><stop
       id="stop3337"
       offset="1"
       style="stop-color:#39c5ff;stop-opacity:1" /></linearGradient><linearGradient
     inkscape:collect="always"
     id="linearGradient3216"><stop
       style="stop-color:#6cd1fb;stop-opacity:1"
       offset="0"
       id="stop3218" /><stop
       style="stop-color:#d4eef9;stop-opacity:1"
       offset="1"
       id="stop3220" /></linearGradient><linearGradient
     inkscape:collect="always"
     id="linearGradient3200"><stop
       style="stop-color:#009ada;stop-opacity:1;"
       offset="0"
       id="stop3202" /><stop
       style="stop-color:#79d8ff;stop-opacity:1"
       offset="1"
       id="stop3204" /></linearGradient><linearGradient
     inkscape:collect="always"
     id="linearGradient3192"><stop
       style="stop-color:#009ada;stop-opacity:1;"
       offset="0"
       id="stop3194" /><stop
       style="stop-color:#70d5ff;stop-opacity:1"
       offset="1"
       id="stop3196" /></linearGradient><linearGradient
     inkscape:collect="always"
     id="linearGradient3967"><stop
       style="stop-color:#ffffff;stop-opacity:1;"
       offset="0"
       id="stop3969" /><stop
       style="stop-color:#ffffff;stop-opacity:0;"
       offset="1"
       id="stop3971" /></linearGradient><linearGradient
     inkscape:collect="always"
     xlink:href="#linearGradient3967"
     id="linearGradient3973"
     x1="36.639923"
     y1="10.711333"
     x2="35.581474"
     y2="16.066296"
     gradientUnits="userSpaceOnUse" /><linearGradient
     id="linearGradient3167"><stop
       style="stop-color:#035b95;stop-opacity:1"
       offset="0"
       id="stop3169" /><stop
       style="stop-color:#62b1d7;stop-opacity:1;"
       offset="1"
       id="stop3171" /></linearGradient><linearGradient
     inkscape:collect="always"
     xlink:href="#linearGradient3167"
     id="linearGradient3189"
     gradientUnits="userSpaceOnUse"
     x1="-10.292396"
     y1="461.78082"
     x2="-10.757737"
     y2="446.14532" /><linearGradient
     inkscape:collect="always"
     id="linearGradient3177"><stop
       style="stop-color:#00405b;stop-opacity:1"
       offset="0"
       id="stop3179" /><stop
       style="stop-color:#019bdb;stop-opacity:1"
       offset="1"
       id="stop3181" /></linearGradient><linearGradient
     inkscape:collect="always"
     xlink:href="#linearGradient3177"
     id="linearGradient3187"
     gradientUnits="userSpaceOnUse"
     x1="-13.084444"
     y1="461.78082"
     x2="-13.084444"
     y2="455.85181" /><inkscape:perspective
     sodipodi:type="inkscape:persp3d"
     inkscape:vp_x="0 : 64 : 1"
     inkscape:vp_y="0 : 1000 : 0"
     inkscape:vp_z="128 : 64 : 1"
     inkscape:persp3d-origin="64 : 42.666667 : 1"
     id="perspective29" /><linearGradient
     inkscape:collect="always"
     xlink:href="#linearGradient3177"
     id="linearGradient3190"
     x1="48.288544"
     y1="88.953499"
     x2="121.98298"
     y2="88.953499"
     gradientUnits="userSpaceOnUse" /><linearGradient
     inkscape:collect="always"
     xlink:href="#linearGradient3192"
     id="linearGradient3198"
     x1="95.855186"
     y1="110.12431"
     x2="110.63"
     y2="112.272"
     gradientUnits="userSpaceOnUse" /><linearGradient
     inkscape:collect="always"
     xlink:href="#linearGradient3200"
     id="linearGradient3206"
     x1="46.550934"
     y1="73.365875"
     x2="29.736504"
     y2="61.707001"
     gradientUnits="userSpaceOnUse" /><linearGradient
     inkscape:collect="always"
     xlink:href="#linearGradient3192"
     id="linearGradient3214"
     x1="109.25474"
     y1="55.188435"
     x2="95.920341"
     y2="39.541"
     gradientUnits="userSpaceOnUse" /><linearGradient
     inkscape:collect="always"
     xlink:href="#linearGradient3216"
     id="linearGradient3222"
     x1="35.932873"
     y1="50.98"
     x2="40.949192"
     y2="31.650814"
     gradientUnits="userSpaceOnUse" /><linearGradient
     inkscape:collect="always"
     xlink:href="#linearGradient3167"
     id="linearGradient3230"
     x1="98"
     y1="23.683773"
     x2="107.69116"
     y2="9.263588"
     gradientUnits="userSpaceOnUse" /><linearGradient
     inkscape:collect="always"
     xlink:href="#linearGradient3216"
     id="linearGradient3238"
     x1="110.84068"
     y1="34.318691"
     x2="66.965324"
     y2="18.945564"
     gradientUnits="userSpaceOnUse" /><linearGradient
     inkscape:collect="always"
     xlink:href="#linearGradient3216"
     id="linearGradient3246"
     x1="15.480371"
     y1="61.081501"
     x2="10.232253"
     y2="52.797565"
     gradientUnits="userSpaceOnUse" /><linearGradient
     inkscape:collect="always"
     xlink:href="#linearGradient3200"
     id="linearGradient3254"
     x1="0.98400003"
     y1="62.016499"
     x2="24.620001"
     y2="62.016499"
     gradientUnits="userSpaceOnUse" /><linearGradient
     inkscape:collect="always"
     xlink:href="#linearGradient3333"
     id="linearGradient3323"
     gradientUnits="userSpaceOnUse"
     x1="102.29537"
     y1="2.5"
     x2="95.852318"
     y2="18.295374" /><linearGradient
     inkscape:collect="always"
     xlink:href="#linearGradient3333"
     id="linearGradient3331"
     gradientUnits="userSpaceOnUse"
     x1="57.492916"
     y1="92.328438"
     x2="104.80148"
     y2="82.817245" /><linearGradient
     inkscape:collect="always"
     xlink:href="#linearGradient3216"
     id="linearGradient3345"
     gradientUnits="userSpaceOnUse"
     x1="101.63631"
     y1="35.239128"
     x2="69.419823"
     y2="22.320501" /></defs><sodipodi:namedview
   inkscape:window-height="749"
   inkscape:window-width="1280"
   inkscape:pageshadow="2"
   inkscape:pageopacity="0.0"
   guidetolerance="10.0"
   gridtolerance="10.0"
   objecttolerance="10.0"
   borderopacity="1.0"
   bordercolor="#666666"
   pagecolor="#ffffff"
   id="base"
   inkscape:zoom="3.2593203"
   inkscape:cx="50.484204"
   inkscape:cy="56.097241"
   inkscape:window-x="0"
   inkscape:window-y="26"
   inkscape:current-layer="svg2"
   showgrid="false" />
<path
   style="opacity:0.2;fill-rule:evenodd;clip-rule:evenodd;fill:#141414;"
   d="M51.868,84.936  c-6.409-5.639-10.084-13.715-10.084-22.156c0-8.504,3.714-16.616,10.19-22.257c0.365-0.319,0.445-0.856,0.186-1.267L42.036,23.192  c-0.148-0.234-0.388-0.396-0.661-0.444s-0.556,0.021-0.773,0.189c-8.268,6.368-14.483,15.328-17.502,25.23  c-0.118,0.387,0.012,0.807,0.331,1.059c4.155,3.291,6.635,8.357,6.635,13.553s-2.481,10.264-6.637,13.555  c-0.317,0.251-0.449,0.67-0.331,1.058c2.995,9.819,9.14,18.728,17.306,25.082c0.219,0.171,0.499,0.241,0.773,0.193  c0.273-0.047,0.514-0.208,0.663-0.441l10.209-16.022C52.309,85.794,52.232,85.256,51.868,84.936z M12.803,50.223  C5.732,50.223,0,55.951,0,63.016C0,70.081,5.732,75.81,12.803,75.81s12.803-5.729,12.803-12.794  C25.606,55.951,19.874,50.223,12.803,50.223z M58.779,35.162c0.257,0.408,0.772,0.57,1.217,0.383  c3.754-1.587,7.654-2.392,11.59-2.392c14.478,0,27.107,10.734,29.377,24.969c0.076,0.478,0.488,0.829,0.971,0.829l19.08,0.029  c0.278,0,0.543-0.117,0.73-0.323s0.277-0.479,0.251-0.757c-1.028-10.562-5.524-20.75-12.659-28.685  c-0.322-0.36-0.859-0.432-1.266-0.169c-2.877,1.858-6.145,2.842-9.447,2.842c-9.633,0-17.469-7.79-17.47-17.364  c0.001-0.005,0.019-0.366,0.019-0.382c0-0.477-0.343-0.888-0.816-0.97c-3.012-0.522-5.962-0.888-8.77-0.888  c-7.711,0-15.502,1.937-22.532,5.411c-0.25,0.124-0.436,0.348-0.511,0.616c-0.076,0.268-0.034,0.555,0.114,0.791L58.779,35.162z   M98,27.5c6.908,0,12.51-5.598,12.51-12.5c0-6.904-5.602-12.5-12.51-12.5S85.49,8.096,85.49,15C85.49,21.902,91.092,27.5,98,27.5z   M120.994,66.733l-19.078,0.062c-0.481,0.001-0.892,0.352-0.969,0.826C98.646,81.75,86.024,92.405,71.586,92.405  c-3.982,0-7.926-0.824-11.722-2.45c-0.444-0.189-0.958-0.03-1.219,0.375l-10.203,16.015c-0.149,0.235-0.192,0.522-0.118,0.791  c0.074,0.268,0.259,0.493,0.508,0.617c7.085,3.547,14.954,5.421,22.754,5.421c2.893,0,5.906-0.273,8.955-0.814  c0.428-0.075,0.756-0.424,0.807-0.855c1.016-8.775,8.443-15.393,17.275-15.393c2.738,0,5.524,0.698,8.056,2.018  c0.385,0.201,0.854,0.127,1.159-0.184c7.985-8.143,13.008-18.842,14.14-30.129c0.028-0.277-0.063-0.553-0.251-0.76  S121.272,66.732,120.994,66.733z M98.486,100.545c-7.071,0-12.804,5.697-12.804,12.728c0,7.029,5.732,12.728,12.804,12.728  c7.07,0,12.803-5.698,12.803-12.728C111.289,106.242,105.557,100.545,98.486,100.545z"
   id="path4" />
<path
   style="opacity:0.2;fill-rule:evenodd;clip-rule:evenodd;fill:#141414;"
   d="M51.868,85.936  c-6.409-5.639-10.084-13.715-10.084-22.156c0-8.504,3.714-16.616,10.19-22.257c0.365-0.319,0.445-0.856,0.186-1.267L42.036,24.192  c-0.148-0.234-0.388-0.396-0.661-0.444s-0.556,0.021-0.773,0.189c-8.268,6.368-14.483,15.328-17.502,25.23  c-0.118,0.387,0.012,0.807,0.331,1.059c4.155,3.291,6.635,8.357,6.635,13.553s-2.481,10.264-6.637,13.555  c-0.317,0.251-0.449,0.67-0.331,1.058c2.995,9.819,9.14,18.728,17.306,25.082c0.219,0.171,0.499,0.241,0.773,0.193  c0.273-0.047,0.514-0.208,0.663-0.441l10.209-16.022C52.309,86.794,52.232,86.256,51.868,85.936z M12.803,51.223  C5.732,51.223,0,56.951,0,64.016C0,71.081,5.732,76.81,12.803,76.81s12.803-5.729,12.803-12.794  C25.606,56.951,19.874,51.223,12.803,51.223z M58.779,36.162c0.257,0.408,0.772,0.57,1.217,0.383  c3.754-1.587,7.654-2.392,11.59-2.392c14.478,0,27.107,10.734,29.377,24.969c0.076,0.478,0.488,0.829,0.971,0.829l19.08,0.029  c0.278,0,0.543-0.117,0.73-0.323s0.277-0.479,0.251-0.757c-1.028-10.562-5.524-20.75-12.659-28.685  c-0.322-0.36-0.859-0.432-1.266-0.169c-2.877,1.858-6.145,2.842-9.447,2.842c-9.633,0-17.469-7.79-17.47-17.364  c0.001-0.005,0.019-0.366,0.019-0.382c0-0.477-0.343-0.888-0.816-0.97c-3.012-0.522-5.962-0.888-8.77-0.888  c-7.711,0-15.502,1.937-22.532,5.411c-0.25,0.124-0.436,0.348-0.511,0.616c-0.076,0.268-0.034,0.555,0.114,0.791L58.779,36.162z   M98,28.5c6.908,0,12.51-5.598,12.51-12.5c0-6.904-5.602-12.5-12.51-12.5S85.49,9.096,85.49,16C85.49,22.902,91.092,28.5,98,28.5z   M120.994,67.733l-19.078,0.062c-0.481,0.001-0.892,0.352-0.969,0.826C98.646,82.75,86.024,93.405,71.586,93.405  c-3.982,0-7.926-0.824-11.722-2.45c-0.444-0.189-0.958-0.03-1.219,0.375l-10.203,16.015c-0.149,0.235-0.192,0.522-0.118,0.791  c0.074,0.268,0.259,0.493,0.508,0.617c7.085,3.547,14.954,5.421,22.754,5.421c2.893,0,5.906-0.273,8.955-0.814  c0.428-0.075,0.756-0.424,0.807-0.855c1.016-8.775,8.443-15.393,17.275-15.393c2.738,0,5.524,0.698,8.056,2.018  c0.385,0.201,0.854,0.127,1.159-0.184c7.985-8.143,13.008-18.842,14.14-30.129c0.028-0.277-0.063-0.553-0.251-0.76  S121.272,67.732,120.994,67.733z M98.486,101.545c-7.071,0-12.804,5.697-12.804,12.728c0,7.029,5.732,12.728,12.804,12.728  c7.07,0,12.803-5.698,12.803-12.728C111.289,107.242,105.557,101.545,98.486,101.545z"
   id="path6" />
<ellipse
   style="fill-rule:evenodd;clip-rule:evenodd;fill:#2eaee4;fill-opacity:1"
   cx="12.803"
   cy="62.016"
   rx="12.803"
   ry="12.794"
   id="ellipse14" /><path
   style="opacity:0.2;fill:#141414;fill-rule:evenodd"
   d="M 51.868,86.936 C 45.459,81.297 41.784,73.221 41.784,64.78 C 41.784,56.276 45.498,48.164 51.974,42.523 C 52.339,42.204 52.419,41.667 52.16,41.256 L 42.036,25.192 C 41.888,24.958 41.648,24.796 41.375,24.748 C 41.102,24.7 40.819,24.769 40.602,24.937 C 32.334,31.305 26.119,40.265 23.1,50.167 C 22.982,50.554 23.112,50.974 23.431,51.226 C 27.586,54.517 30.066,59.583 30.066,64.779 C 30.066,69.975 27.585,75.043 23.429,78.334 C 23.112,78.585 22.98,79.004 23.098,79.392 C 26.093,89.211 32.238,98.12 40.404,104.474 C 40.623,104.645 40.903,104.715 41.177,104.667 C 41.45,104.62 41.691,104.459 41.84,104.226 L 52.049,88.204 C 52.309,87.794 52.232,87.256 51.868,86.936 z M 12.803,52.223 C 5.732,52.223 0,57.951 0,65.016 C 0,72.081 5.732,77.81 12.803,77.81 C 19.874,77.81 25.606,72.081 25.606,65.016 C 25.606,57.951 19.874,52.223 12.803,52.223 z M 58.779,37.162 C 59.036,37.57 59.551,37.732 59.996,37.545 C 63.75,35.958 67.65,35.153 71.586,35.153 C 86.064,35.153 98.693,45.887 100.963,60.122 C 101.039,60.6 101.451,60.951 101.934,60.951 L 121.014,60.98 C 121.292,60.98 121.557,60.863 121.744,60.657 C 121.931,60.451 122.021,60.178 121.995,59.9 C 120.967,49.338 116.471,39.15 109.336,31.215 C 109.014,30.855 108.477,30.783 108.07,31.046 C 105.193,32.904 101.925,33.888 98.623,33.888 C 88.99,33.888 81.154,26.098 81.153,16.524 C 81.154,16.519 81.172,16.158 81.172,16.142 C 81.172,15.665 80.829,15.254 80.356,15.172 C 77.344,14.65 74.394,14.284 71.586,14.284 C 63.875,14.284 56.084,16.221 49.054,19.695 C 48.804,19.819 48.618,20.043 48.543,20.311 C 48.467,20.579 48.509,20.866 48.657,21.102 L 58.779,37.162 z M 98,29.5 C 104.908,29.5 110.51,23.902 110.51,17 C 110.51,10.096 104.908,4.5 98,4.5 C 91.092,4.5 85.49,10.096 85.49,17 C 85.49,23.902 91.092,29.5 98,29.5 z M 120.994,68.733 L 101.916,68.795 C 101.435,68.796 101.024,69.147 100.947,69.621 C 98.646,83.75 86.024,94.405 71.586,94.405 C 67.604,94.405 63.66,93.581 59.864,91.955 C 59.42,91.766 58.906,91.925 58.645,92.33 L 48.442,108.345 C 48.293,108.58 48.25,108.867 48.324,109.136 C 48.398,109.404 48.583,109.629 48.832,109.753 C 55.917,113.3 63.786,115.174 71.586,115.174 C 74.479,115.174 77.492,114.901 80.541,114.36 C 80.969,114.285 81.297,113.936 81.348,113.505 C 82.364,104.73 89.791,98.112 98.623,98.112 C 101.361,98.112 104.147,98.81 106.679,100.13 C 107.064,100.331 107.533,100.257 107.838,99.946 C 115.823,91.803 120.846,81.104 121.978,69.817 C 122.006,69.54 121.915,69.264 121.727,69.057 C 121.539,68.85 121.272,68.732 120.994,68.733 z M 98.486,102.545 C 91.415,102.545 85.682,108.242 85.682,115.273 C 85.682,122.302 91.414,128.001 98.486,128.001 C 105.556,128.001 111.289,122.303 111.289,115.273 C 111.289,108.242 105.557,102.545 98.486,102.545 z"
   id="path8" />
<path
   style="fill:#5fbcd3"
   d="M49.491,17.578c1.036,1.645,9.365,14.859,10.122,16.061c3.826-1.617,7.845-2.469,11.974-2.469  c15.117,0,27.996,11.035,30.35,25.798c1.436,0.002,17.172,0.025,19.08,0.028c-1.013-10.391-5.381-20.303-12.411-28.123  c-2.997,1.937-6.415,2.999-9.981,2.999c-10.176,0-18.455-8.231-18.455-18.349c0,0,0.01-0.21,0.019-0.381  c-2.833-0.492-5.718-0.874-8.601-0.874C63.928,12.269,56.327,14.199,49.491,17.578z"
   id="path20" /><path
   style="fill:url(#linearGradient3206);fill-opacity:1;stroke:#009ada;stroke-opacity:1"
   d="M24.042,47.455c4.389,3.477,7.009,8.764,7.009,14.324S28.43,72.628,24.04,76.104  c2.951,9.681,8.941,18.346,16.968,24.593c1.02-1.6,9.441-14.818,10.209-16.023c-6.615-5.82-10.418-14.1-10.418-22.895  c0-8.859,3.843-17.176,10.528-22.999c-0.762-1.208-9.112-14.458-10.124-16.063C33.076,28.978,27.018,37.694,24.042,47.455z"
   id="path12" />

<path
   style="fill-rule:evenodd;clip-rule:evenodd;fill:url(#linearGradient3254);fill-opacity:1.0"
   d="M0.984,62.016c0,6.512,5.302,11.811,11.818,11.811  s11.818-5.299,11.818-11.811s-5.302-11.81-11.818-11.81S0.984,55.504,0.984,62.016z"
   id="path16" /><path
   style="fill-rule:evenodd;clip-rule:evenodd;fill:url(#linearGradient3246);fill-opacity:1"
   d="M23.732,58.691c-1.419-4.695-5.784-8.125-10.938-8.125  c-6.301,0-11.427,5.123-11.427,11.419c0,4.03,2.102,7.58,5.266,9.612C11.926,67.035,17.919,62.755,23.732,58.691z"
   id="path46" />

<path
   style="fill:url(#linearGradient3214);fill-opacity:1"
   d="M49.054,16.696c-0.25,0.124-0.436,0.348-0.511,0.616c-0.076,0.268-0.034,0.555,0.114,0.791  l10.122,16.059c0.257,0.408,0.772,0.57,1.217,0.383c3.754-1.587,7.654-2.392,11.59-2.392c14.478,0,27.107,10.734,29.377,24.969  c0.076,0.478,0.488,0.829,0.971,0.829l19.08,0.029c0.278,0,0.543-0.117,0.73-0.323s0.277-0.479,0.251-0.757  c-1.028-10.562-5.524-20.75-12.659-28.685c-0.322-0.36-0.859-0.432-1.266-0.169c-2.877,1.858-6.145,2.842-9.447,2.842  c-9.633,0-17.469-7.79-17.47-17.364c0.001-0.005,0.019-0.366,0.019-0.382c0-0.477-0.343-0.888-0.816-0.97  c-3.012-0.522-5.962-0.888-8.77-0.888C63.875,11.285,56.084,13.222,49.054,16.696z"
   id="path18" />

<path
   style="fill-rule:evenodd;clip-rule:evenodd;fill:url(#linearGradient3345);fill-opacity:1"
   d="M49.785,17.67c0.223,0.354,9.742,15.457,9.91,15.725  c3.853-1.604,7.852-2.426,11.891-2.426c6.679,0,13.049,2.117,18.434,6.111c0.135-0.01,13.647-0.981,13.647-0.981  s8.987-0.652,9.627-0.699c-1.429-2.233-2.902-4.136-4.624-6.063c-3.031,1.919-6.573,2.836-10.047,2.836  c-10.286,0-18.654-8.421-18.654-18.648c0-0.006,0.004-0.107,0.01-0.207c-2.885-0.491-5.709-0.848-8.393-0.848  C64.13,12.469,56.6,14.34,49.785,17.67z"
   id="path37" /><path
   style="fill-rule:evenodd;clip-rule:evenodd;fill:url(#linearGradient3323);fill-opacity:1;stroke:#1281b0;stroke-opacity:1"
   d="M86.992,14c0,6.065,4.938,11,11.008,11s11.008-4.935,11.008-11  S104.07,3,98,3S86.992,7.935,86.992,14z"
   id="path24" />

<path
   style="fill:url(#linearGradient3331);fill-opacity:1"
   d="M120.994,65.733l-19.078,0.062c-0.481,0.001-0.892,0.352-0.969,0.826  C98.646,80.75,86.024,91.405,71.586,91.405c-3.982,0-7.926-0.824-11.722-2.45c-0.444-0.189-0.958-0.03-1.219,0.375l-10.203,16.015  c-0.149,0.235-0.192,0.522-0.118,0.791c0.074,0.268,0.259,0.493,0.508,0.617c7.085,3.547,14.954,5.421,22.754,5.421  c2.893,0,5.906-0.273,8.955-0.814c0.428-0.075,0.756-0.424,0.807-0.855c1.016-8.775,8.443-15.393,17.275-15.393  c2.738,0,5.524,0.698,8.056,2.018c0.385,0.201,0.854,0.127,1.159-0.184c7.985-8.143,13.008-18.842,14.14-30.129  c0.028-0.277-0.063-0.553-0.251-0.76S121.272,65.732,120.994,65.733z"
   id="path26" />
<path
   style="fill-rule:evenodd;clip-rule:evenodd;fill:url(#linearGradient3198);fill-opacity:1;stroke:#008cc6;stroke-opacity:1"
   d="M86.844,112.272c0,6.379,5.223,11.569,11.643,11.569  s11.643-5.19,11.643-11.569s-5.223-11.569-11.643-11.569S86.844,105.894,86.844,112.272z"
   id="path30" />

<linearGradient
   id="XMLID_3_"
   gradientUnits="userSpaceOnUse"
   x1="75.5039"
   y1="11.96"
   x2="85.5969"
   y2="36.3307">
	<stop
   offset="0"
   style="stop-color:#F99D77"
   id="stop33" />
	<stop
   offset="1"
   style="stop-color:#F7804E"
   id="stop35" />
</linearGradient>

<linearGradient
   id="XMLID_4_"
   gradientUnits="userSpaceOnUse"
   x1="37.6743"
   y1="25.6035"
   x2="37.6743"
   y2="47.5006">
	<stop
   offset="0"
   style="stop-color:#FCB462"
   id="stop40" />
	<stop
   offset="1"
   style="stop-color:#FCAF55"
   id="stop42" />
</linearGradient>
<path
   style="fill-rule:evenodd;clip-rule:evenodd;fill:url(#linearGradient3222);fill-opacity:1"
   d="M24.274,47.396c2.325,1.872,4.177,4.286,5.384,7.002  c4.482-2.91,8.801-4.448,14.231-6.626c1.709-3.011,4.592-6.732,7.185-9.017c-0.159-0.252-9.684-15.365-9.919-15.738  C33.202,29.201,27.214,37.844,24.274,47.396z"
   id="path44" />

</svg>